<svg width="20" height="20" viewBox="0 0 20 20" fill="none" xmlns="http://www.w3.org/2000/svg">
<rect width="20" height="20" rx="10" fill="#50AF95"/>
<path fill-rule="evenodd" clip-rule="evenodd" d="M11.4553 10.4948C11.374 10.5009 10.954 10.526 10.0173 10.526C9.27219 10.526 8.74318 10.5036 8.55759 10.4948C5.67819 10.3681 3.52897 9.8669 3.52897 9.26677C3.52897 8.66664 5.67819 8.16608 8.55759 8.03739V9.9956C8.74589 10.0091 9.28506 10.041 10.0301 10.041C10.9242 10.041 11.372 10.0037 11.4526 9.99627V8.03874C14.3259 8.16676 16.4704 8.668 16.4704 9.26677C16.4704 9.86555 14.3265 10.3668 11.4526 10.4941L11.4553 10.4948ZM11.4553 7.83622V6.08392H15.4652V3.41179H4.5477V6.08392H8.55691V7.83554C5.2982 7.98523 2.84756 8.63074 2.84756 9.40427C2.84756 10.1778 5.2982 10.8226 8.55691 10.973V16.5882H11.4546V10.971C14.7059 10.8213 17.1524 10.1764 17.1524 9.4036C17.1524 8.63075 14.7079 7.98591 11.4546 7.83554L11.4553 7.83622Z" fill="white"/>
</svg>
