<svg width="20" height="20" viewBox="0 0 20 20" fill="none" xmlns="http://www.w3.org/2000/svg">
<path d="M9.37415 0.524793C9.44952 0.335718 9.71715 0.335718 9.79251 0.524793L12.0666 6.23001C12.0982 6.30931 12.1719 6.36392 12.257 6.37104L18.1762 6.86621C18.3732 6.88269 18.4549 7.12679 18.3075 7.2585L13.7838 11.302C13.7227 11.3567 13.6961 11.4402 13.7144 11.5201L15.094 17.5551C15.1388 17.7514 14.9232 17.9034 14.7534 17.7952L9.70436 14.5771C9.63054 14.5301 9.53613 14.5301 9.4623 14.5771L4.41326 17.7952C4.24346 17.9034 4.02784 17.7514 4.07271 17.5551L5.45229 11.5201C5.47056 11.4402 5.44396 11.3567 5.38284 11.302L0.859123 7.2585C0.711762 7.12679 0.793459 6.88269 0.990419 6.86621L6.90968 6.37104C6.99475 6.36392 7.06848 6.30931 7.10009 6.23001L9.37415 0.524793Z" fill="#FEC84B"/>
</svg>
