<svg width="127" height="24" viewBox="0 0 127 24" fill="none" xmlns="http://www.w3.org/2000/svg">
<path d="M0.939697 22.4836V1.27051C0.939697 0.758734 1.35739 0.343628 1.87235 0.343628H7.60275C8.11771 0.343628 8.5354 0.758734 8.5354 1.27051V7.50707C8.5354 8.01885 8.9531 8.43395 9.46806 8.43395H14.0198C14.5347 8.43395 14.9524 8.01885 14.9524 7.50707V1.27051C14.9524 0.758734 15.3701 0.343628 15.8851 0.343628H21.6155C22.1304 0.343628 22.5481 0.758734 22.5481 1.27051V22.4836C22.5481 22.9954 22.1304 23.4105 21.6155 23.4105H15.8851C15.3701 23.4105 14.9524 22.9954 14.9524 22.4836V16.5428C14.9524 16.031 14.5347 15.6159 14.0198 15.6159H9.46806C8.9531 15.6159 8.5354 16.031 8.5354 16.5428V22.4836C8.5354 22.9954 8.11771 23.4105 7.60275 23.4105H1.87235C1.35739 23.4105 0.939697 22.9954 0.939697 22.4836Z" fill="white"/>
<path d="M46.6742 23.4105H41.1183V22.1524C39.6936 23.3053 37.7954 23.8825 35.4208 23.8825C32.2023 23.8825 29.513 22.7296 27.2443 20.4223C25.0286 18.115 23.9214 15.3372 23.9214 12.1386C23.9214 8.94004 25.0815 6.05704 27.3502 3.8038C29.6718 1.49654 32.4669 0.343628 35.7369 0.343628C39.007 0.343628 41.8564 1.49654 44.1251 3.8038C46.4467 6.05846 47.6068 8.83626 47.6068 12.1386V22.4836C47.6068 22.9954 47.1891 23.4105 46.6742 23.4105ZM35.7369 6.8446C32.836 6.8446 30.4614 9.20304 30.4614 12.1401C30.4614 15.0771 32.8345 17.3829 35.7369 17.3829C38.6393 17.3829 41.0125 15.0245 41.0125 12.1401C41.0125 9.25564 38.6908 6.8446 35.7369 6.8446Z" fill="white"/>
<path d="M69.6029 10.3048V22.4836C69.6029 22.9954 69.1852 23.4105 68.6702 23.4105H63.7838C63.2689 23.4105 62.8512 22.9954 62.8512 22.4836V10.3048C62.8512 7.84114 61.8484 6.58303 59.7914 6.58303C57.7344 6.58303 56.6787 7.99894 56.6787 10.3048V22.4836C56.6787 22.9954 56.2611 23.4105 55.7461 23.4105H50.8597C50.3447 23.4105 49.927 22.9954 49.927 22.4836V10.3048C49.927 7.15878 50.8768 4.69515 52.775 2.96506C54.6747 1.23497 56.9949 0.343628 59.7914 0.343628C62.3762 0.343628 64.4862 1.07717 66.227 2.54568C67.9679 1.07717 70.1307 0.343628 72.7156 0.343628C75.5107 0.343628 77.8323 1.23497 79.679 2.96506C81.5787 4.69515 82.527 7.15878 82.527 10.3048V22.4836C82.527 22.9954 82.1093 23.4105 81.5944 23.4105H76.708C76.193 23.4105 75.7753 22.9954 75.7753 22.4836V10.3048C75.7753 7.84114 74.7725 6.58303 72.7156 6.58303C70.6586 6.58303 69.6029 7.94634 69.6029 10.3048Z" fill="white"/>
<path d="M85.6741 0.815552H98.3079C100.547 0.815552 102.425 2.59682 102.413 4.82162C102.408 5.86081 102.038 6.79764 101.306 7.6833L94.3627 15.6386C93.8391 16.2385 94.2683 17.1725 95.0665 17.1725H101.269C101.784 17.1725 102.202 17.5876 102.202 18.0994V22.485C102.202 22.9968 101.784 23.4119 101.269 23.4119H88.0115C85.6383 23.4119 83.949 21.6818 83.949 19.3234C83.949 18.3794 84.318 17.4355 85.1091 16.5441L92.0096 8.58744C92.5303 7.9861 92.1011 7.05495 91.3029 7.05495H85.6712C85.1563 7.05495 84.7386 6.63985 84.7386 6.12807V1.74244C84.7386 1.23066 85.1563 0.815552 85.6712 0.815552H85.6741Z" fill="white"/>
<path d="M125.429 23.4105H119.873V22.1524C118.449 23.3053 116.55 23.8825 114.176 23.8825C110.957 23.8825 108.268 22.7296 105.999 20.4223C103.784 18.115 102.676 15.3372 102.676 12.1386C102.676 8.94004 103.836 6.05704 106.105 3.8038C108.427 1.49654 111.222 0.343628 114.492 0.343628C117.762 0.343628 120.611 1.49654 122.88 3.8038C125.202 6.05846 126.362 8.83626 126.362 12.1386V22.4836C126.362 22.9954 125.944 23.4105 125.429 23.4105ZM114.492 6.8446C111.591 6.8446 109.216 9.20304 109.216 12.1401C109.216 15.0771 111.59 17.3829 114.492 17.3829C117.394 17.3829 119.767 15.0245 119.767 12.1401C119.767 9.25564 117.446 6.8446 114.492 6.8446Z" fill="white"/>
</svg>
