<svg width="48" height="67" viewBox="0 0 48 67" fill="none" xmlns="http://www.w3.org/2000/svg">
<path d="M44.5643 40.744C45.0191 38.6727 45.1751 36.6284 44.3397 34.7121C41.7377 28.7471 33.6242 29.7451 28.9537 32.2769C25.6608 34.0625 22.8171 36.8175 20.7172 39.8882C18.56 43.0427 16.988 46.6493 13.861 49.0305C13.4676 49.3304 13.0127 49.6005 12.5178 49.5906C11.7797 49.575 11.1846 48.9125 11.003 48.2003C10.8213 47.488 10.96 46.7403 11.106 46.021C14.1414 31.0885 20.514 16.8369 29.6318 4.58985C30.1882 3.84209 30.7704 3.06874 30.9564 2.15607C31.643 -1.2117 27.3845 0.191417 25.7323 0.932071C23.2863 2.02812 21.1935 3.90748 19.3339 5.79252C10.5695 14.6789 6.07362 26.8109 2.4746 38.7296C1.09421 43.3014 -0.203212 48.0908 0.617868 52.7949C1.43752 57.499 4.99219 62.0751 9.77563 62.5172C14.1628 62.9238 18.1567 59.846 20.7415 56.2991C23.3263 52.7522 25.0214 48.6026 27.8137 45.2149C28.1326 44.8268 28.5003 44.4288 28.9909 44.3136C29.7376 44.1388 30.4929 44.7131 30.7976 45.4139C31.1023 46.1148 31.0722 46.9052 31.0622 47.6686C31.0207 51.0349 31.4942 54.461 32.9218 57.5132C35.1433 62.2613 39.7236 65.848 44.8875 66.8844C45.6714 67.0422 46.5783 67.1147 47.1834 66.5943C48.3221 65.6177 47.3622 63.8151 46.4982 62.5911C43.1638 57.8714 41.9251 51.7429 43.1653 46.1091C43.5544 44.3435 44.1695 42.5338 44.5628 40.7426L44.5643 40.744Z" fill="#84C441"/>
</svg>
